<svg xmlns="http://www.w3.org/2000/svg" xmlns:xlink="http://www.w3.org/1999/xlink" x="0px" y="0px" viewBox="0 0 100 100" style="enable-background:new 0 0 100 100;" xml:space="preserve"><g>	<g>		<g>			<g>				<path d="M67.8,28.5c-0.6,0-1.2-0.5-1.2-1.2v-9c0-0.6,0.5-1.2,1.2-1.2c0.6,0,1.2,0.5,1.2,1.2v9C69,27.9,68.5,28.5,67.8,28.5z"></path>				<path d="M49,28.5c-0.6,0-1.2-0.5-1.2-1.2v-9c0-0.6,0.5-1.2,1.2-1.2c0.6,0,1.2,0.5,1.2,1.2v9C50.1,27.9,49.6,28.5,49,28.5z"></path>			</g>			<path d="M67.8,19.5c-0.6,0-1.2-0.5-1.2-1.2c0-4.6-3.7-8.3-8.3-8.3s-8.3,3.7-8.3,8.3c0,0.6-0.5,1.2-1.2,1.2    c-0.6,0-1.2-0.5-1.2-1.2c0-5.8,4.7-10.6,10.6-10.6c5.8,0,10.6,4.7,10.6,10.6C69,19,68.5,19.5,67.8,19.5z"></path>			<path d="M74.3,59.6H42.5c-2.8,0-5.1-2.3-5.1-5.1V31.3c0-2.8,2.3-5.1,5.1-5.1h31.8c2.8,0,5.1,2.3,5.1,5.1v23.2    C79.4,57.3,77.1,59.6,74.3,59.6z M42.5,28.5c-1.6,0-2.8,1.3-2.8,2.8v23.2c0,1.6,1.3,2.8,2.8,2.8h31.8c1.6,0,2.8-1.3,2.8-2.8V31.3    c0-1.6-1.3-2.8-2.8-2.8H42.5z"></path>			<path d="M58.4,46.8c-0.6,0-1.2-0.5-1.2-1.2v-5.6c0-0.6,0.5-1.2,1.2-1.2c0.6,0,1.2,0.5,1.2,1.2v5.6C59.5,46.3,59,46.8,58.4,46.8z"></path>		</g>		<path d="M88.6,73.5H28.2c-0.6,0-1.2-0.5-1.2-1.2c0-0.6,0.5-1.2,1.2-1.2h59.5l9.1-32.5H87c-0.6,0-1.2-0.5-1.2-1.2s0.5-1.2,1.2-1.2   h11.4c0.4,0,0.7,0.2,0.9,0.5c0.2,0.3,0.3,0.7,0.2,1l-9.8,34.8C89.5,73.2,89.1,73.5,88.6,73.5z"></path>		<path d="M29.8,38.7H18.4c-0.6,0-1.2-0.5-1.2-1.2s0.5-1.2,1.2-1.2h11.4c0.6,0,1.2,0.5,1.2,1.2S30.5,38.7,29.8,38.7z"></path>		<g>			<g>				<path d="M40.3,92.3c-3.6,0-6.5-2.9-6.5-6.5c0-3.6,2.9-6.5,6.5-6.5s6.5,2.9,6.5,6.5C46.8,89.3,43.9,92.3,40.3,92.3z M40.3,81.6     c-2.3,0-4.2,1.9-4.2,4.2c0,2.3,1.9,4.2,4.2,4.2c2.3,0,4.2-1.9,4.2-4.2C44.5,83.4,42.6,81.6,40.3,81.6z"></path>			</g>			<g>				<path d="M76.5,92.3c-3.6,0-6.5-2.9-6.5-6.5c0-3.6,2.9-6.5,6.5-6.5s6.5,2.9,6.5,6.5C83,89.3,80.1,92.3,76.5,92.3z M76.5,81.6     c-2.3,0-4.2,1.9-4.2,4.2c0,2.3,1.9,4.2,4.2,4.2c2.3,0,4.2-1.9,4.2-4.2C80.7,83.4,78.8,81.6,76.5,81.6z"></path>			</g>		</g>		<path d="M28.2,73.5c-0.5,0-1-0.3-1.1-0.8L13.1,23c-0.7-2.6-3.1-4.4-5.8-4.4H1.7c-0.6,0-1.2-0.5-1.2-1.2s0.5-1.2,1.2-1.2h5.6   c3.7,0,7.1,2.5,8.1,6.1l14,49.7c0.2,0.6-0.2,1.2-0.8,1.4C28.4,73.5,28.3,73.5,28.2,73.5z"></path>	</g></g></svg>