<svg xmlns="http://www.w3.org/2000/svg" xmlns:xlink="http://www.w3.org/1999/xlink" x="0px" y="0px" viewBox="0 0 100 100" style="enable-background:new 0 0 100 100;" xml:space="preserve"><g>	<g>		<g>			<path d="M50,85.8c-0.2,0-0.4,0-0.5-0.1L23.1,70.4c-0.3-0.2-0.5-0.5-0.5-0.9V39c0-0.4,0.2-0.7,0.5-0.9l26.4-15.2    c0.3-0.2,0.7-0.2,1,0l26.4,15.2c0.3,0.2,0.5,0.5,0.5,0.9v30.5c0,0.4-0.2,0.7-0.5,0.9L50.5,85.7C50.4,85.8,50.2,85.8,50,85.8z     M24.6,68.9L50,83.6l25.4-14.7V39.6L50,25L24.6,39.6V68.9z"></path>			<path d="M50,55.3c-0.4,0-0.7-0.2-0.9-0.5c-0.3-0.5-0.1-1.1,0.4-1.4l26.4-15.2c0.5-0.3,1.1-0.1,1.4,0.4c0.3,0.5,0.1,1.1-0.4,1.4    L50.5,55.2C50.4,55.3,50.2,55.3,50,55.3z"></path>			<path d="M50,85.8c-0.6,0-1-0.5-1-1V54.3c0-0.6,0.5-1,1-1s1,0.5,1,1v30.5C51,85.3,50.6,85.8,50,85.8z"></path>			<path d="M50,55.3c-0.2,0-0.4,0-0.5-0.1L23.1,39.9c-0.5-0.3-0.7-0.9-0.4-1.4c0.3-0.5,0.9-0.7,1.4-0.4l26.4,15.2    c0.5,0.3,0.7,0.9,0.4,1.4C50.7,55.1,50.4,55.3,50,55.3z"></path>			<path d="M63.2,47.7c-0.2,0-0.4,0-0.5-0.1L36.3,32.3c-0.5-0.3-0.7-0.9-0.4-1.4c0.3-0.5,0.9-0.7,1.4-0.4l26.4,15.2    c0.5,0.3,0.7,0.9,0.4,1.4C63.9,47.5,63.6,47.7,63.2,47.7z"></path>		</g>	</g>	<path d="M50,99.5c-25.4,0-46-20.6-46-46c0-25.4,20.6-46,46-46c0.6,0,1,0.5,1,1c0,0.6-0.5,1-1,1C25.8,9.6,6.1,29.3,6.1,53.5  c0,24.2,19.7,43.9,43.9,43.9c24.2,0,43.9-19.7,43.9-43.9c0-20-13.5-37.5-32.8-42.5c-0.6-0.1-0.9-0.7-0.7-1.3  c0.1-0.6,0.7-0.9,1.3-0.7C81.9,14.3,96,32.6,96,53.5C96,78.9,75.4,99.5,50,99.5z"></path>	<g>		<path d="M43,16.6c-0.3,0-0.5-0.1-0.7-0.3c-0.4-0.4-0.4-1.1,0-1.5l6.3-6.3l-6.3-6.3c-0.4-0.4-0.4-1.1,0-1.5c0.4-0.4,1.1-0.4,1.5,0   l7,7c0.4,0.4,0.4,1.1,0,1.5l-7,7C43.5,16.5,43.3,16.6,43,16.6z"></path>	</g>	<path d="M63.3,59.8c-0.6,0-1-0.5-1-1V47.6c0-0.6,0.5-1,1-1s1,0.5,1,1v11.1C64.4,59.3,63.9,59.8,63.3,59.8z"></path></g></svg>