<svg xmlns="http://www.w3.org/2000/svg" xmlns:xlink="http://www.w3.org/1999/xlink" x="0px" y="0px" viewBox="0 0 100 100" style="enable-background:new 0 0 100 100;" xml:space="preserve"><g>	<path d="M98.5,68.5h-6.7c-0.6,0-1-0.5-1-1s0.5-1,1-1h5.7V48.7l-8.1-16.3h-12c-0.6,0-1-0.5-1-1v-5.9H23.7c-0.6,0-1-0.5-1-1  c0-0.6,0.5-1,1-1h53.7c0.6,0,1,0.5,1,1v5.9H90c0.4,0,0.7,0.2,0.9,0.6L99.4,48c0.1,0.1,0.1,0.3,0.1,0.5v19  C99.5,68.1,99,68.5,98.5,68.5z"></path>	<path d="M75.6,68.5H49.9c-0.6,0-1-0.5-1-1s0.5-1,1-1h25.7c0.6,0,1,0.5,1,1S76.2,68.5,75.6,68.5z"></path>	<path d="M33.9,68.5H20.4c-0.6,0-1-0.5-1-1s0.5-1,1-1h13.5c0.6,0,1,0.5,1,1S34.4,68.5,33.9,68.5z"></path>	<g>		<path d="M83.7,76.6c-5,0-9.1-4.1-9.1-9.1c0-5,4.1-9.1,9.1-9.1c5,0,9.1,4.1,9.1,9.1C92.8,72.5,88.7,76.6,83.7,76.6z M83.7,60.5   c-3.9,0-7,3.1-7,7c0,3.9,3.1,7,7,7c3.9,0,7-3.1,7-7C90.7,63.6,87.6,60.5,83.7,60.5z"></path>		<path d="M41.9,76.6c-5,0-9.1-4.1-9.1-9.1c0-5,4.1-9.1,9.1-9.1s9.1,4.1,9.1,9.1C50.9,72.5,46.9,76.6,41.9,76.6z M41.9,60.5   c-3.9,0-7,3.1-7,7c0,3.9,3.1,7,7,7c3.9,0,7-3.1,7-7C48.9,63.6,45.7,60.5,41.9,60.5z"></path>	</g>	<g>		<path d="M21.8,57.5H1.5c-0.6,0-1-0.5-1-1c0-0.6,0.5-1,1-1h20.3c0.6,0,1,0.5,1,1C22.8,57,22.4,57.5,21.8,57.5z"></path>		<path d="M29.2,47H8.9c-0.6,0-1-0.5-1-1s0.5-1,1-1h20.3c0.6,0,1,0.5,1,1S29.7,47,29.2,47z"></path>		<path d="M36.5,36.5H16.2c-0.6,0-1-0.5-1-1c0-0.6,0.5-1,1-1h20.3c0.6,0,1,0.5,1,1C37.5,36.1,37,36.5,36.5,36.5z"></path>	</g>	<path d="M91.2,49.5H77.4c-0.6,0-1-0.5-1-1V37.6c0-0.6,0.5-1,1-1s1,0.5,1,1v9.9h12.7c0.6,0,1,0.5,1,1S91.7,49.5,91.2,49.5z"></path></g></svg>