<?xml version="1.0" encoding="UTF-8"?>
<svg version="1.1" xmlns="http://www.w3.org/2000/svg" width="88" height="70">
<path d="M0 0 C2.9719385 1.12451727 5.33440687 2.22293791 8 4 C8 4.66 8 5.32 8 6 C9.95626713 6.48753366 11.91516463 6.96451433 13.875 7.4375 C14.96554688 7.70433594 16.05609375 7.97117187 17.1796875 8.24609375 C29.21782464 10.62171795 41.55638341 10.30002719 53.78051758 10.47680664 C56.42810826 10.51681638 59.07529474 10.56825017 61.72265625 10.62109375 C62.91834984 10.63371498 62.91834984 10.63371498 64.13819885 10.64659119 C77.94584205 10.94584205 77.94584205 10.94584205 82 15 C82.07150256 18.07460998 81.64297257 20.15748422 79.75390625 22.6328125 C74.63127202 27.91514515 68.72640528 32.39995973 63 37 C60.99227362 38.65772044 58.99575807 40.32787837 57 42 C56.01 41.505 56.01 41.505 55 41 C55.58007812 40.35933594 56.16015625 39.71867187 56.7578125 39.05859375 C59.17848651 36.37827649 61.58916125 33.68916322 64 31 C64.63808594 30.30132812 65.27617188 29.60265625 65.93359375 28.8828125 C69.20871813 25.47906309 69.20871813 25.47906309 70 21 C62.55123048 18.05969624 54.83993032 17.97133185 46.91796875 17.82421875 C45.65533203 17.80037109 44.39269531 17.77652344 43.09179688 17.75195312 C40.50081563 17.70918055 37.90961936 17.67782397 35.31835938 17.65820312 C24.22008531 17.41534013 13.33093054 15.97816805 4.6875 8.5 C3.78386719 7.7471875 2.88023437 6.994375 1.94921875 6.21875 C0 4 0 4 0 0 Z " fill="#846B61" transform="translate(5,4)"/>
<path d="M0 0 C3.56234428 -0.08741124 7.12441108 -0.14052896 10.6875 -0.1875 C11.69490234 -0.21263672 12.70230469 -0.23777344 13.74023438 -0.26367188 C22.95822299 -0.35493909 22.95822299 -0.35493909 27 3 C26.89888743 7.14561531 25.9590891 9.41753548 23.125 12.3125 C18.30327743 16.79620491 13.13041235 20.87872281 8 25 C5.99227362 26.65772044 3.99575807 28.32787837 2 30 C1.34 29.67 0.68 29.34 0 29 C0.58007812 28.35933594 1.16015625 27.71867187 1.7578125 27.05859375 C3.37511702 25.26781598 4.98685745 23.47200146 6.59375 21.671875 C8.02915961 20.07801108 9.48183186 18.49904783 10.96875 16.953125 C12.83718501 15.02785449 12.83718501 15.02785449 15 12 C15.05050452 9.14054182 15.05050452 9.14054182 14 7 C13.01 6.67 12.02 6.34 11 6 C10.67 5.34 10.34 4.68 10 4 C9.01 4 8.02 4 7 4 C4.99690671 3.68578929 2.99628664 3.3548954 1 3 C0.67 2.01 0.34 1.02 0 0 Z " fill="#917569" transform="translate(60,16)"/>
<path d="M0 0 C2.7912125 1.98322993 3.82597224 3.12986121 4.5 6.5 C4 9 4 9 2.4375 11.375 C0 13 0 13 -3.625 12.9375 C-7 12 -7 12 -9 9 C-9.32502803 5.87973093 -9.51151479 3.85252465 -7.875 1.125 C-5.07553259 -0.55468045 -3.20195936 -0.45742277 0 0 Z " fill="#92786D" transform="translate(28,51)"/>
<path d="M0 0 C2.35055139 1.54001643 2.90737836 2.76535851 3.9375 5.375 C4 8 4 8 2.5 10.875 C0 13 0 13 -3.625 13 C-7 12 -7 12 -9 9 C-9.32502803 5.87973093 -9.51151479 3.85252465 -7.875 1.125 C-5.11909116 -0.52854531 -3.14924548 -0.39365568 0 0 Z " fill="#907669" transform="translate(54,51)"/>
<path d="M0 0 C2.9719385 1.12451727 5.33440687 2.22293791 8 4 C8 4.66 8 5.32 8 6 C9.36125 6.4021875 9.36125 6.4021875 10.75 6.8125 C13.72991834 7.90131632 15.68590359 8.86391101 18 11 C18 11.66 18 12.32 18 13 C18.66 13.66 19.32 14.32 20 15 C14.49447899 14.55955832 11.36497538 13.36466852 7 10 C6.36320313 9.51917969 5.72640625 9.03835938 5.0703125 8.54296875 C1.33586923 5.58091034 1.33586923 5.58091034 0 4 C0 2.68 0 1.36 0 0 Z " fill="#907567" transform="translate(5,4)"/>
<path d="M0 0 C0.33 0.99 0.66 1.98 1 3 C-0.74207884 4.6549749 -2.49276372 6.29875421 -4.25 7.9375 C-4.98669922 8.64036133 -4.98669922 8.64036133 -5.73828125 9.35742188 C-8.36518686 11.79168774 -10.36532157 13.59326218 -14 14 C-5.6 0 -5.6 0 0 0 Z " fill="#9E877B" transform="translate(74,32)"/>
<path d="M0 0 C0.66 0.33 1.32 0.66 2 1 C1.34 2.65 0.68 4.3 0 6 C-0.66 4.68 -1.32 3.36 -2 2 C-3.32 2.33 -4.64 2.66 -6 3 C-5.34 4.32 -4.68 5.64 -4 7 C-5.32 7 -6.64 7 -8 7 C-8.33 7.66 -8.66 8.32 -9 9 C-9.36 3.6 -9.36 3.6 -7.875 1.125 C-5.18282457 -0.49030526 -3.07846795 -0.26199727 0 0 Z " fill="#856F64" transform="translate(54,51)"/>
<path d="M0 0 C2.91517292 1.07401108 4.77810176 1.77810176 7 4 C6.67 4.99 6.34 5.98 6 7 C3.5625 6.3125 3.5625 6.3125 1 5 C0.1875 2.375 0.1875 2.375 0 0 Z " fill="#BDB2AC" transform="translate(5,4)"/>
<path d="M0 0 C0.33 0.66 0.66 1.32 1 2 C3.52733235 2.65555119 3.52733235 2.65555119 6 3 C4.68 3.33 3.36 3.66 2 4 C2.66 5.32 3.32 6.64 4 8 C0.63408134 6.55746343 -1.51047079 4.66735273 -4 2 C-3.01 2 -2.02 2 -1 2 C-0.67 1.34 -0.34 0.68 0 0 Z " fill="#705D53" transform="translate(12,8)"/>
<path d="M0 0 C0.99 0 1.98 0 3 0 C1.9024777 2.99324263 1.32317108 3.84610901 -1.625 5.25 C-2.40875 5.4975 -3.1925 5.745 -4 6 C-2.1875 3 -2.1875 3 0 0 Z " fill="#8E7D75" transform="translate(64,40)"/>
<path d="M0 0 C3.99904969 0 5.80200422 1.72586967 9 4 C5.79937313 5.60031344 3.27728194 4.03173691 0 3 C0 2.01 0 1.02 0 0 Z " fill="#857266" transform="translate(66,19)"/>
<path d="M0 0 C0.66 0.33 1.32 0.66 2 1 C2 1.66 2 2.32 2 3 C2.66 3.66 3.32 4.32 4 5 C-2.75 4.25 -2.75 4.25 -5 2 C-2.625 0.9375 -2.625 0.9375 0 0 Z " fill="#816B61" transform="translate(21,14)"/>
<path d="M0 0 C3.125 0.1875 3.125 0.1875 6.125 2.1875 C6.125 2.8475 6.125 3.5075 6.125 4.1875 C2.59659682 3.51996426 -0.64070644 2.80464678 -3.875 1.1875 C-2.875 0.1875 -2.875 0.1875 0 0 Z " fill="#7B6C63" transform="translate(24.875,50.8125)"/>
<path d="M0 0 C1.65 0 3.3 0 5 0 C5.66 1.32 6.32 2.64 7 4 C3.89448334 4 2.64738916 3.4606285 0 2 C0 1.34 0 0.68 0 0 Z " fill="#8F7B70" transform="translate(80,17)"/>
</svg>
